<svg width="200" height="200" viewBox="0 0 200 200" fill="none" xmlns="http://www.w3.org/2000/svg">
<path d="M57.4883 145.573H142.511V158.681H57.4883V145.573Z" fill="#E5E5E5"/>
<path d="M131.481 21.6711C128.159 45.7008 115.325 77.868 100 77.868C84.675 77.868 71.8406 45.7008 68.5187 21.6711C68.0133 22.0782 67.6976 22.7079 67.7226 23.4094C68.5687 47.411 82.6961 88.4211 100.001 88.4211C117.305 88.4211 131.433 47.411 132.279 23.4094C132.302 22.7079 131.987 22.0782 131.481 21.6711Z" fill="#E5E5E5"/>
<path d="M91.3773 98.6975C90.1913 103.485 88.7804 108.273 87.1445 113.061H99.9999H112.855C111.219 108.272 109.809 103.485 108.623 98.6975H91.3773Z" fill="#E5E5E5"/>
<path d="M146.602 164.932H53.3977C51.0844 164.932 49.0648 163.675 47.9844 161.807C47.4523 162.726 47.1484 163.793 47.1484 164.932C47.1484 168.383 49.9461 171.181 53.3977 171.181H146.603C150.055 171.181 152.852 168.383 152.852 164.932C152.852 163.793 152.548 162.726 152.016 161.807C150.935 163.675 148.916 164.932 146.602 164.932Z" fill="#E5E5E5"/>
<path d="M146.602 156.729H144.465V129.935C144.465 125.314 140.705 121.554 136.083 121.554H130.399V118.434C130.399 114.394 127.113 111.109 123.073 111.109H114.266C111.677 103.327 109.666 95.4577 108.28 87.6734C112.876 84.6499 117.022 79.3093 120.584 72.7843C124.297 71.7859 146.811 64.9195 146.811 45.3913V39.232C146.811 35.9523 144.143 33.2843 140.863 33.2843H133.273C133.8 29.7593 134.125 26.4429 134.23 23.4773C134.269 22.3585 133.862 21.2991 133.085 20.4945C132.305 19.6866 131.257 19.2413 130.133 19.2413H69.868C68.7437 19.2413 67.6953 19.6859 66.9156 20.4945C66.1383 21.2999 65.7312 22.3593 65.7711 23.4773C65.8758 26.4429 66.2008 29.7593 66.7273 33.2843H59.1375C55.8578 33.2843 53.1898 35.9523 53.1898 39.232V45.3913C53.1898 64.9195 75.7039 71.7859 79.4172 72.7843C82.9789 79.3085 87.125 84.6499 91.7203 87.6734C90.3344 95.4577 88.3242 103.326 85.7344 111.109H76.9265C72.8867 111.109 69.6008 114.394 69.6008 118.434V121.554H63.9172C59.2953 121.554 55.5352 125.314 55.5352 129.935V156.729H53.3977C48.875 156.729 45.1953 160.409 45.1953 164.931C45.1953 169.454 48.875 173.134 53.3977 173.134H146.603C151.126 173.134 154.805 169.454 154.805 164.931C154.805 160.409 151.125 156.729 146.602 156.729ZM140.863 37.1913C141.989 37.1913 142.905 38.107 142.905 39.2327V45.3921C142.905 58.8952 129.764 65.439 123.044 67.9023C127.483 58.3773 130.787 47.1913 132.622 37.1913H140.863ZM57.0953 45.3921V39.2327C57.0953 38.107 58.0109 37.1913 59.1367 37.1913H67.3781C69.2133 47.1913 72.5172 58.3765 76.9562 67.9023C70.2351 65.4382 57.0953 58.8945 57.0953 45.3921ZM69.6742 23.3406C69.6742 23.3218 69.6719 23.2632 69.725 23.2077C69.7633 23.1687 69.8109 23.1484 69.868 23.1484H130.133C130.189 23.1484 130.237 23.1687 130.276 23.2077C130.329 23.2632 130.327 23.3218 130.327 23.3406C129.566 44.8945 118.334 77.7398 105.196 85.0062C105.191 85.0093 105.184 85.0101 105.179 85.0132C104.752 85.2491 104.327 85.4562 103.902 85.6343C103.886 85.6413 103.869 85.6484 103.852 85.6554C103.658 85.7359 103.464 85.8101 103.27 85.8781C103.238 85.889 103.206 85.8999 103.175 85.9109C102.987 85.9749 102.801 86.0343 102.614 86.0874C102.584 86.096 102.553 86.1038 102.523 86.1124C102.329 86.1656 102.135 86.214 101.941 86.2546C101.934 86.2562 101.926 86.2577 101.919 86.2593C100.639 86.5257 99.364 86.5257 98.0843 86.2593C98.0765 86.2577 98.0687 86.2562 98.0617 86.2546C97.8679 86.214 97.6742 86.1656 97.4797 86.1124C97.4492 86.1038 97.4187 86.096 97.389 86.0874C97.2023 86.0343 97.0156 85.9749 96.8281 85.9109C96.7961 85.8999 96.7648 85.889 96.7328 85.8781C96.539 85.8093 96.3453 85.7359 96.1508 85.6554C96.1343 85.6484 96.1172 85.6413 96.1008 85.6343C95.6765 85.4562 95.2508 85.2491 94.8242 85.0132C94.8187 85.0101 94.8125 85.0093 94.807 85.0062C81.6664 77.7398 70.4344 44.8945 69.6742 23.3406ZM95.3593 89.539C95.4047 89.5554 95.4508 89.5663 95.4961 89.582C95.8148 89.6945 96.1359 89.7952 96.4586 89.8843C96.5437 89.9077 96.6289 89.9257 96.7148 89.9468C96.9906 90.0171 97.2679 90.0804 97.5468 90.1335C97.6422 90.1515 97.7375 90.1679 97.8328 90.1835C98.1203 90.232 98.4093 90.271 98.7 90.2999C98.7679 90.307 98.8367 90.3156 98.9047 90.3218C99.2679 90.3523 99.6328 90.3734 100.001 90.3734C100.369 90.3734 100.734 90.3523 101.097 90.3218C101.165 90.3163 101.234 90.307 101.302 90.2999C101.592 90.271 101.881 90.232 102.169 90.1835C102.264 90.1679 102.359 90.1515 102.455 90.1335C102.734 90.0804 103.01 90.0179 103.287 89.9468C103.372 89.9249 103.458 89.9077 103.543 89.8843C103.866 89.7952 104.187 89.6945 104.505 89.582C104.551 89.5663 104.597 89.5554 104.642 89.539C105.974 96.7101 107.82 103.944 110.147 111.108H100.002H89.8562C92.1804 103.944 94.0265 96.7109 95.3593 89.539ZM73.507 118.434C73.507 116.548 75.0414 115.015 76.9265 115.015H123.073C124.959 115.015 126.493 116.548 126.493 118.434V121.554H73.507V118.434ZM59.4414 129.934C59.4414 127.467 61.4484 125.459 63.9172 125.459H71.5539H128.446H136.083C138.551 125.459 140.559 127.466 140.559 129.934V156.728H59.4414V129.934ZM146.602 169.227H53.3977C51.0289 169.227 49.1016 167.3 49.1016 164.931C49.1016 162.562 51.0289 160.635 53.3977 160.635H57.4883H142.512H146.602C148.971 160.635 150.898 162.562 150.898 164.931C150.898 167.3 148.972 169.227 146.602 169.227Z" fill="#E5E5E5"/>
<path d="M115.062 47.2171L108.438 52.0296C107.848 52.4593 107.6 53.2195 107.826 53.9148L110.355 61.7007C110.86 63.2539 109.082 64.5453 107.761 63.5851L101.137 58.7726C100.547 58.3429 99.7461 58.3429 99.1555 58.7726L92.532 63.5851C91.211 64.5453 89.4328 63.2539 89.9375 61.7007L92.4672 53.9148C92.693 53.2203 92.4453 52.4593 91.8547 52.0296L85.2313 47.2171C83.9102 46.257 84.5891 44.1671 86.2227 44.1671H94.4094C95.1399 44.1671 95.7867 43.6968 96.0125 43.0023L98.5422 35.2164C99.0469 33.6632 101.245 33.6632 101.749 35.2164L104.279 43.0023C104.505 43.6968 105.152 44.1671 105.882 44.1671H114.069C115.704 44.1671 116.383 46.2578 115.062 47.2171Z" fill="#E5E5E5"/>
</svg>
